<mxfile host="65bd71144e">
    <diagram name="페이지-1" id="NS8c8MpVSg3ALZJKuZtI">
        <mxGraphModel dx="1216" dy="707" grid="1" gridSize="10" guides="1" tooltips="1" connect="1" arrows="1" fold="1" page="1" pageScale="1" pageWidth="1654" pageHeight="2336" math="0" shadow="0">
            <root>
                <mxCell id="0"/>
                <mxCell id="1" parent="0"/>
                <mxCell id="4Xy0U8kn-G6CAsoUGtmP-65" style="edgeStyle=orthogonalEdgeStyle;rounded=0;orthogonalLoop=1;jettySize=auto;html=1;entryX=0;entryY=0.5;entryDx=0;entryDy=0;" parent="1" source="4Xy0U8kn-G6CAsoUGtmP-51" edge="1">
                    <mxGeometry relative="1" as="geometry">
                        <mxPoint x="430" y="210" as="targetPoint"/>
                    </mxGeometry>
                </mxCell>
                <mxCell id="4Xy0U8kn-G6CAsoUGtmP-51" value="Actor" style="shape=umlActor;verticalLabelPosition=bottom;verticalAlign=top;html=1;outlineConnect=0;" parent="1" vertex="1">
                    <mxGeometry x="190" y="180" width="30" height="60" as="geometry"/>
                </mxCell>
                <mxCell id="4Xy0U8kn-G6CAsoUGtmP-56" style="edgeStyle=orthogonalEdgeStyle;rounded=0;orthogonalLoop=1;jettySize=auto;html=1;entryX=0;entryY=0.5;entryDx=0;entryDy=0;exitX=0.95;exitY=0.313;exitDx=0;exitDy=0;exitPerimeter=0;" parent="1" target="4Xy0U8kn-G6CAsoUGtmP-53" edge="1">
                    <mxGeometry relative="1" as="geometry">
                        <mxPoint x="544" y="195.03999999999996" as="sourcePoint"/>
                    </mxGeometry>
                </mxCell>
                <mxCell id="4Xy0U8kn-G6CAsoUGtmP-62" style="edgeStyle=orthogonalEdgeStyle;rounded=0;orthogonalLoop=1;jettySize=auto;html=1;exitX=1;exitY=0.5;exitDx=0;exitDy=0;entryX=0;entryY=0.5;entryDx=0;entryDy=0;" parent="1" target="4Xy0U8kn-G6CAsoUGtmP-59" edge="1">
                    <mxGeometry relative="1" as="geometry">
                        <Array as="points">
                            <mxPoint x="610" y="210"/>
                            <mxPoint x="610" y="366"/>
                        </Array>
                        <mxPoint x="550" y="210" as="sourcePoint"/>
                    </mxGeometry>
                </mxCell>
                <mxCell id="4Xy0U8kn-G6CAsoUGtmP-53" value="로그인 페이지" style="ellipse;whiteSpace=wrap;html=1;" parent="1" vertex="1">
                    <mxGeometry x="720" y="60" width="120" height="80" as="geometry"/>
                </mxCell>
                <mxCell id="4Xy0U8kn-G6CAsoUGtmP-59" value="마이페이지" style="ellipse;whiteSpace=wrap;html=1;" parent="1" vertex="1">
                    <mxGeometry x="720" y="326" width="120" height="80" as="geometry"/>
                </mxCell>
                <mxCell id="4Xy0U8kn-G6CAsoUGtmP-75" style="edgeStyle=orthogonalEdgeStyle;rounded=0;orthogonalLoop=1;jettySize=auto;html=1;entryX=0.5;entryY=0;entryDx=0;entryDy=0;exitX=0.5;exitY=1;exitDx=0;exitDy=0;" parent="1" source="4Xy0U8kn-G6CAsoUGtmP-68" edge="1">
                    <mxGeometry relative="1" as="geometry">
                        <Array as="points">
                            <mxPoint x="490" y="650"/>
                            <mxPoint x="90" y="650"/>
                            <mxPoint x="90" y="70"/>
                            <mxPoint x="490" y="70"/>
                        </Array>
                        <mxPoint x="490" y="170" as="targetPoint"/>
                    </mxGeometry>
                </mxCell>
                <mxCell id="4Xy0U8kn-G6CAsoUGtmP-81" style="edgeStyle=orthogonalEdgeStyle;rounded=0;orthogonalLoop=1;jettySize=auto;html=1;entryX=0;entryY=0.5;entryDx=0;entryDy=0;exitX=0.5;exitY=1;exitDx=0;exitDy=0;" parent="1" source="3" target="4" edge="1">
                    <mxGeometry relative="1" as="geometry">
                        <mxPoint x="550" y="550" as="sourcePoint"/>
                        <mxPoint x="720" y="626" as="targetPoint"/>
                    </mxGeometry>
                </mxCell>
                <mxCell id="4Xy0U8kn-G6CAsoUGtmP-86" value="" style="edgeStyle=orthogonalEdgeStyle;rounded=0;orthogonalLoop=1;jettySize=auto;html=1;exitX=1;exitY=0.5;exitDx=0;exitDy=0;" parent="1" source="4" target="4Xy0U8kn-G6CAsoUGtmP-85" edge="1">
                    <mxGeometry relative="1" as="geometry">
                        <mxPoint x="1040" y="490" as="sourcePoint"/>
                    </mxGeometry>
                </mxCell>
                <mxCell id="4Xy0U8kn-G6CAsoUGtmP-85" value="글쓰기" style="ellipse;whiteSpace=wrap;html=1;" parent="1" vertex="1">
                    <mxGeometry x="860" y="460" width="120" height="80" as="geometry"/>
                </mxCell>
                <mxCell id="3" value="지도" style="rounded=0;whiteSpace=wrap;html=1;" vertex="1" parent="1">
                    <mxGeometry x="430" y="180" width="120" height="60" as="geometry"/>
                </mxCell>
                <mxCell id="4" value="여행 포인트" style="rounded=0;whiteSpace=wrap;html=1;" vertex="1" parent="1">
                    <mxGeometry x="650" y="470" width="120" height="60" as="geometry"/>
                </mxCell>
            </root>
        </mxGraphModel>
    </diagram>
</mxfile>